<?xml version="1.0" encoding="utf-8"?>
<!-- Generator: Adobe Illustrator 22.0.0, SVG Export Plug-In . SVG Version: 6.00 Build 0)  -->
<svg version="1.1" id="Capa_1" xmlns="http://www.w3.org/2000/svg" xmlns:xlink="http://www.w3.org/1999/xlink" x="0px" y="0px"
	 viewBox="0 0 550 550" style="enable-background:new 0 0 550 550;" xml:space="preserve">
<style type="text/css">
	.st0{fill:#0EB6C9;}
</style>
<path class="st0" d="M534.1,369.9h-8.6v-69c0-19.1-15.4-34.5-34.5-34.5V119.7c0-19.1-15.4-34.5-34.5-34.5H93.8
	c-19.1,0-34.5,15.4-34.5,34.5v146.7c-19.1,0-34.5,15.4-34.5,34.5v69h-8.6c-4.7,0-8.6,3.9-8.6,8.6V413c0,4.7,3.9,8.6,8.6,8.6h8.6
	v34.5c0,4.7,3.9,8.6,8.6,8.6h25.9c4.1,0,7.6-2.9,8.5-6.9l7.3-36.2h400.1l7.3,36.2c0.8,4.1,4.4,6.9,8.5,6.9h25.9
	c4.7,0,8.6-3.9,8.6-8.6v-34.5h8.6c4.7,0,8.6-3.9,8.6-8.6v-34.5C542.7,373.8,539,369.9,534.1,369.9 M76.6,119.5
	c0-9.5,7.8-17.3,17.3-17.3h362.6c9.5,0,17.3,7.8,17.3,17.3v146.7h-17.3v-34.5c0-19.1-15.4-34.5-34.5-34.5H318.3
	c-19.1,0-34.5,15.4-34.5,34.5v34.5h-17.3v-34.5c0-19.1-15.4-34.5-34.5-34.5H128.5c-19.1,0-34.5,15.4-34.5,34.5v34.5H76.8V119.5H76.6
	z M439.1,231.8v34.5H301.1v-34.5c0-9.5,7.8-17.3,17.3-17.3h103.5C431.4,214.6,439.1,222.2,439.1,231.8 M249.3,231.8v34.5H111.3
	v-34.5c0-9.5,7.8-17.3,17.3-17.3h103.5C241.5,214.6,249.3,222.2,249.3,231.8 M42.1,300.9c0-9.5,7.8-17.3,17.3-17.3h431.6
	c9.5,0,17.3,7.8,17.3,17.3v69H42.1V300.9z M52.2,447.6H42.1v-25.9h15.4L52.2,447.6z M508.2,447.6H498l-5.2-25.9h15.4V447.6z
	 M525.4,404.4H24.8v-17.3h500.6V404.4z"/>
</svg>
