<svg xmlns="http://www.w3.org/2000/svg" viewBox="0 0 59.73 42.39"><defs><style>.cls-1{fill:#00b5c9;}</style></defs><title>habitaacions</title><g id="Capa_2" data-name="Capa 2"><g id="Capa_1-2" data-name="Capa 1"><path class="cls-1" d="M58.77,31.79h-1v-7.7A3.86,3.86,0,0,0,54,20.23V3.85A3.86,3.86,0,0,0,50.1,0H9.63A3.86,3.86,0,0,0,5.78,3.85V20.23a3.86,3.86,0,0,0-3.85,3.86v7.7H1a1,1,0,0,0-1,1v3.85a1,1,0,0,0,1,1h1v3.86a1,1,0,0,0,1,1H5.78a1,1,0,0,0,1-.77l.8-4H52.2l.81,4a1,1,0,0,0,.94.77h2.89a1,1,0,0,0,1-1V37.57h1a1,1,0,0,0,1-1V32.76a1,1,0,0,0-1-1M7.71,3.85A1.92,1.92,0,0,1,9.63,1.93H50.1A1.92,1.92,0,0,1,52,3.85V20.23H50.1V16.38a3.86,3.86,0,0,0-3.86-3.85H34.68a3.85,3.85,0,0,0-3.85,3.85v3.85H28.9V16.38a3.85,3.85,0,0,0-3.85-3.85H13.49a3.86,3.86,0,0,0-3.86,3.85v3.85H7.71ZM48.17,16.38v3.85H32.76V16.38a1.93,1.93,0,0,1,1.92-1.93H46.24a1.93,1.93,0,0,1,1.93,1.93M27,16.38v3.85H11.56V16.38a1.93,1.93,0,0,1,1.93-1.93H25.05A1.94,1.94,0,0,1,27,16.38M3.85,24.09a1.93,1.93,0,0,1,1.93-1.93H54a1.93,1.93,0,0,1,1.93,1.93v7.7h-52ZM5,40.46H3.85V37.57H5.57Zm50.89,0H54.74l-.58-2.89h1.72Zm1.92-4.81H1.93V33.72H57.8Z"/></g></g></svg>