<svg xmlns="http://www.w3.org/2000/svg" viewBox="0 0 43.57 44.69"><defs><style>.cls-1{fill:#00b5c9;stroke:#00b5c9;stroke-miterlimit:10;}</style></defs><title>icono-lavabo</title><g id="Capa_2" data-name="Capa 2"><g id="Capa_1-2" data-name="Capa 1"><path class="cls-1" d="M42.28,25.22H39.06V6.45a5.95,5.95,0,0,0-11.9,0V8.89a.79.79,0,1,0,1.58,0V6.45a4.37,4.37,0,1,1,8.73,0V25.22H1.29A.79.79,0,0,0,.5,26,13.6,13.6,0,0,0,9.31,38.69l.77.29-.57.6A5.48,5.48,0,0,0,8,43.4a.79.79,0,0,0,1.58,0,3.76,3.76,0,0,1,3.65-3.86H30.34A3.76,3.76,0,0,1,34,43.4a.79.79,0,1,0,1.58,0,5.52,5.52,0,0,0-1.51-3.82l-.57-.6.77-.29A13.6,13.6,0,0,0,43.07,26,.79.79,0,0,0,42.28,25.22Zm-.88,2.19A11.93,11.93,0,0,1,29.54,38H14A11.93,11.93,0,0,1,2.17,27.41l-.08-.61H41.47Z"/></g></g></svg>