<?xml version="1.0" encoding="utf-8"?>
<!-- Generator: Adobe Illustrator 22.0.0, SVG Export Plug-In . SVG Version: 6.00 Build 0)  -->
<svg version="1.1" id="Capa_1" xmlns="http://www.w3.org/2000/svg" xmlns:xlink="http://www.w3.org/1999/xlink" x="0px" y="0px"
	 viewBox="0 0 841.9 595.3" style="enable-background:new 0 0 841.9 595.3;" xml:space="preserve">
<style type="text/css">
	.st0{fill:#0EB6C9;}
</style>
<path class="st0" d="M502.2,355.9H486v-98.6c0-17.8-14.5-32.3-32.3-32.3c-17.8,0-32.3,14.5-32.3,32.3v10.6h10v-10.6
	c0-12.3,10-22.3,22.3-22.3c12.3,0,22.3,10,22.3,22.3v98.6H285.1c-2.8,0-5,2.3-5,5c0,30.1,19,57.4,47.2,67.9l2.9,1.1l-2.2,2.3
	c-5.2,5.5-8.1,12.7-8.2,20.4h10c0.2-10.6,8.4-19.2,18.5-19.2H439c10.1,0,18.3,8.6,18.5,19.2h10c-0.1-7.7-3-14.9-8.2-20.4l-2.2-2.3
	l2.9-1.1c28.2-10.5,47.2-37.8,47.2-67.9C507.2,358.2,505,355.9,502.2,355.9z M496.8,368.3L496.8,368.3c-3.7,31.4-30.4,55.1-62,55.1
	h-82.1c-31.7,0-58.3-23.7-62-55.1l-0.3-2.3H497L496.8,368.3z"/>
</svg>
