<?xml version="1.0" encoding="utf-8"?>
<!-- Generator: Adobe Illustrator 22.0.0, SVG Export Plug-In . SVG Version: 6.00 Build 0)  -->
<svg version="1.1" id="Capa_1" xmlns="http://www.w3.org/2000/svg" xmlns:xlink="http://www.w3.org/1999/xlink" x="0px" y="0px"
	 viewBox="0 0 550 550" style="enable-background:new 0 0 550 550;" xml:space="preserve">
<style type="text/css">
	.st0{fill:#0EB6C9;}
</style>
<path class="st0" d="M452.5,302.1h-26.9V138.4c0-29.5-24.1-53.6-53.6-53.6c-29.5,0-53.6,24.1-53.6,53.6V156H335v-17.6
	c0-20.4,16.6-37,37-37c20.4,0,37,16.6,37,37v163.7H92.2c-4.6,0-8.3,3.8-8.3,8.3c0,50,31.5,95.3,78.3,112.7l4.8,1.8l-3.7,3.8
	c-8.6,9.1-13.4,21.1-13.6,33.9h16.6c0.3-17.6,13.9-31.9,30.7-31.9h150.5c16.8,0,30.4,14.3,30.7,31.9H395c-0.2-12.8-5-24.7-13.6-33.9
	l-3.7-3.8l4.8-1.8c46.8-17.4,78.3-62.7,78.3-112.7C460.8,305.9,457.2,302.1,452.5,302.1z M443.6,322.7L443.6,322.7
	c-6.1,52.1-50.5,91.5-102.9,91.5H204.4c-52.6,0-96.8-39.3-102.9-91.5l-0.5-3.8h342.9L443.6,322.7z"/>
</svg>
