<svg xmlns="http://www.w3.org/2000/svg" viewBox="0 0 11.46 11.47"><defs><style>.cls-1{fill:#fff;}</style></defs><title>logo-pinte</title><g id="Capa_2" data-name="Capa 2"><g id="Capa_1-2" data-name="Capa 1"><path class="cls-1" d="M5.73,3.83A2,2,0,0,0,4.32,7.1,1.94,1.94,0,0,0,7.63,5.74a1.91,1.91,0,0,0-1.9-1.91m4.68.46a11.92,11.92,0,0,0-.09-1.46A1.92,1.92,0,0,0,8.76,1.17a8.35,8.35,0,0,0-1.58-.12c-1,0-1.94,0-2.9,0a14.13,14.13,0,0,0-1.46.1A1.9,1.9,0,0,0,1.18,2.64,5.85,5.85,0,0,0,1.05,4C1,4.81,1,5.6,1,6.39s0,1.4.09,2.1a2,2,0,0,0,1.59,1.83,7.5,7.5,0,0,0,1.57.11c1,0,1.93,0,2.9,0a9,9,0,0,0,1.46-.1,1.88,1.88,0,0,0,1.62-1.42,4,4,0,0,0,.13-.84c0-.77,0-1.55,0-2.32h0c0-.49,0-1,0-1.46M5.72,8.69a3,3,0,1,1,3-2.94A3,3,0,0,1,5.72,8.69M8.78,3.38a.71.71,0,0,1-.69-.7A.69.69,0,0,1,8.8,2a.67.67,0,0,1,.67.7.69.69,0,0,1-.69.68m2.66,4.17a5.43,5.43,0,0,1-.22,1.79,2.88,2.88,0,0,1-2.31,2,9.15,9.15,0,0,1-1.74.13c-1.07,0-2.14,0-3.22,0a5.62,5.62,0,0,1-1.82-.23,2.92,2.92,0,0,1-2-2.31A14.31,14.31,0,0,1,0,6.57C0,5.69,0,4.8,0,3.92A5.56,5.56,0,0,1,.24,2.15a2.94,2.94,0,0,1,2.3-2A8.31,8.31,0,0,1,4.11,0H5.74V0L8.1,0a3.63,3.63,0,0,1,2,.61,3,3,0,0,1,1.23,2,10.72,10.72,0,0,1,.1,1.88c0,1,0,2,0,3"/></g></g></svg>