<svg xmlns="http://www.w3.org/2000/svg" viewBox="0 0 15.5 10.97"><defs><style>.cls-1{fill:#fff;}</style></defs><title>logo-yotu</title><g id="Capa_2" data-name="Capa 2"><g id="Capa_1-2" data-name="Capa 1"><path class="cls-1" d="M15.49,3.78a4.93,4.93,0,0,0,0-.55A4,4,0,0,0,14.8.94,2.55,2.55,0,0,0,13,.21C12.22.12,11.4.07,10.57,0,8.91,0,7.24,0,5.57,0,4.72.06,3.86.08,3,.15,2,.23.88.39.39,1.44A7.75,7.75,0,0,0,0,4.58C0,5.49,0,6.39,0,7.3.08,8.48.15,10,1.42,10.53a7.55,7.55,0,0,0,2.22.38c.77.05,1.53,0,2.3.05,1.61,0,3.23,0,4.84-.06a10.74,10.74,0,0,0,3.34-.4c.92-.31,1.16-1.32,1.29-2.19a18.78,18.78,0,0,0,.09-2.6C15.5,5.06,15.51,4.42,15.49,3.78ZM6.18,7.83V3.11l4,2.36Z"/></g></g></svg>