<?xml version="1.0" encoding="utf-8"?>
<!-- Generator: Adobe Illustrator 22.0.0, SVG Export Plug-In . SVG Version: 6.00 Build 0)  -->
<svg version="1.1" id="Capa_1" xmlns="http://www.w3.org/2000/svg" xmlns:xlink="http://www.w3.org/1999/xlink" x="0px" y="0px"
	 viewBox="0 0 550 550" style="enable-background:new 0 0 550 550;" xml:space="preserve">
<style type="text/css">
	.st0{fill:#0EB6C9;}
</style>
<g>
	<path class="st0" d="M520.9,426.4v-28.6h-18.4v28.6c0,22.8-18.6,41.6-41.6,41.6H355.3v18.4H461
		C494.1,486.2,520.9,459.4,520.9,426.4z"/>
	<path class="st0" d="M521,186.3V167c0-33.1-26.9-59.8-59.8-59.8H355.7v18.4H461c22.8,0,41.6,18.6,41.6,41.6v19.3H521V186.3z"/>
	<path class="st0" d="M88.7,486.2h105.5v-18.4H88.7c-22.8,0-41.6-18.6-41.6-41.6v-28.6H28.7v28.6C28.8,459.4,55.6,486.2,88.7,486.2z
		"/>
	<path class="st0" d="M28.8,167v19.3h18.4V167c0-22.8,18.6-41.6,41.6-41.6h105.5V107H88.8C55.8,107,28.8,134,28.8,167z"/>
</g>
</svg>
