<svg xmlns="http://www.w3.org/2000/svg" viewBox="0 0 54.72 36.68"><defs><style>.cls-1{fill:#00b5c9;}</style></defs><title>metres</title><g id="Capa_2" data-name="Capa 2"><g id="Capa_1-2" data-name="Capa 1"><path class="cls-1" d="M36.19,2.25H48a4.5,4.5,0,0,1,4.5,4.49V9h2.25V6.74A6.75,6.75,0,0,0,48,0H36.19Z"/><path class="cls-1" d="M2.25,9V6.74A4.49,4.49,0,0,1,6.74,2.25H18.53V0H6.74A6.75,6.75,0,0,0,0,6.74V9Z"/><path class="cls-1" d="M18.53,34.43H6.74a4.49,4.49,0,0,1-4.49-4.49V26.65H0v3.29a6.74,6.74,0,0,0,6.74,6.74H18.53Z"/><path class="cls-1" d="M52.47,26.65v3.29A4.5,4.5,0,0,1,48,34.43H36.19v2.25H48a6.75,6.75,0,0,0,6.75-6.74V26.65Z"/></g></g></svg>