<svg xmlns="http://www.w3.org/2000/svg" viewBox="0 0 12.98 20.88"><defs><style>.cls-1{fill:#00b5c9;}</style></defs><title>movil</title><g id="Capa_2" data-name="Capa 2"><g id="Capa_1-2" data-name="Capa 1"><path class="cls-1" d="M12.27,6.49a.71.71,0,0,0-.71.71v8.16H2.45a.72.72,0,0,0,0,1.43h9.11v.49a2.19,2.19,0,0,1-.64,1.54,2.16,2.16,0,0,1-1.54.63H3.6a2.16,2.16,0,0,1-1.54-.63,2.19,2.19,0,0,1-.64-1.54V5.12H12.34a.73.73,0,0,0,.43-.21A.7.7,0,0,0,13,4.47V3.6A3.6,3.6,0,0,0,9.38,0H3.6A3.6,3.6,0,0,0,0,3.6V17.28a3.6,3.6,0,0,0,3.6,3.6H9.38a3.62,3.62,0,0,0,3.6-3.6V7.2a.71.71,0,0,0-.71-.71M1.42,3.7V3.6A2.19,2.19,0,0,1,3.6,1.42H9.38A2.19,2.19,0,0,1,11.56,3.6v.1Z"/><path class="cls-1" d="M6,2.21H6a.7.7,0,0,0,0,1,.7.7,0,0,0,1,0,.71.71,0,0,0,.21-.5A.71.71,0,0,0,6,2.21"/><path class="cls-1" d="M7.45,18.91a.72.72,0,0,0,.71-.71.71.71,0,0,0-.71-.71H5.53a.71.71,0,1,0,0,1.42Z"/></g></g></svg>