<svg xmlns="http://www.w3.org/2000/svg" viewBox="0 0 18.67 18.67"><defs><style>.cls-1{fill:#00b5c9;}</style></defs><title>wasap</title><g id="Capa_2" data-name="Capa 2"><g id="Capa_1-2" data-name="Capa 1"><path class="cls-1" d="M14,12.25a2.26,2.26,0,0,1-1.51,1.06c-.42,0-.42.33-2.7-.56A9.33,9.33,0,0,1,6,9.39,4.36,4.36,0,0,1,5,7.08a2.51,2.51,0,0,1,.78-1.86,1.33,1.33,0,0,1,.66-.28,3.08,3.08,0,0,1,.37,0c.13,0,.32,0,.51.43S8,6.88,8.05,7a.41.41,0,0,1,0,.39,1.43,1.43,0,0,1-.23.37c-.11.13-.23.29-.33.39s-.23.23-.1.46a6.69,6.69,0,0,0,1.25,1.54,6.34,6.34,0,0,0,1.81,1.11c.22.11.35.09.48-.06s.56-.65.71-.87.3-.19.51-.12,1.31.62,1.53.73.38.17.44.26A1.92,1.92,0,0,1,14,12.25"/><path class="cls-1" d="M9.51,0A9.13,9.13,0,0,0,.34,9.1a9,9,0,0,0,1.31,4.69L0,18.67l5.08-1.61a9.18,9.18,0,0,0,13.59-8A9.13,9.13,0,0,0,9.51,0m0,16.74a7.66,7.66,0,0,1-4.24-1.26l-3,.94,1-2.84A7.58,7.58,0,0,1,1.8,9.1a7.71,7.71,0,1,1,7.71,7.64"/></g></g></svg>